<?xml version="1.0" encoding="UTF-8" standalone="no"?>
<!DOCTYPE svg PUBLIC "-//W3C//DTD SVG 1.1//EN" "http://www.w3.org/Graphics/SVG/1.1/DTD/svg11.dtd">
<svg version="1.1" xmlns="http://www.w3.org/2000/svg" xmlns:xlink="http://www.w3.org/1999/xlink" preserveAspectRatio="xMidYMid meet" viewBox="0 0 640 640" width="1200" height="850"><defs><path d="M221.39 436.54L232.1 456.78L210.67 456.78L189.25 456.78L199.96 436.54L210.67 416.3L221.39 436.54Z" id="e2swtklfep"></path><path d="M219.24 480L228.77 453.37L209.72 453.37L190.67 453.37L200.2 480L209.72 506.63L219.24 480Z" id="a2sSgMI42"></path><path d="M240.31 472.74L250.43 492.97L230.2 492.97L209.96 492.97L220.08 472.74L230.2 452.5L240.31 472.74Z" id="f2Q8nbfNDh"></path><path d="M200.67 472.38L210.2 490.83L191.15 490.83L172.1 490.83L181.62 472.38L191.15 453.93L200.67 472.38Z" id="arcs0QeAm"></path><path d="M226.38 515.4L206.11 488.01L246.59 487.97L287.06 487.93L266.85 515.36L246.64 542.78L226.38 515.4Z" id="d2YlXr9JI"></path><path d="M151.46 515.11L132.16 487.68L170.85 487.74L209.54 487.8L190.15 515.17L170.76 542.55L151.46 515.11Z" id="p1RPPXpEA"></path><path d="M229.9 512.57L249.25 539.97L210.56 539.98L171.87 540L191.2 512.59L210.54 485.18L229.9 512.57Z" id="a12uf6Q49i"></path></defs><g><g><g><use xlink:href="#e2swtklfep" opacity="1" fill="#505375" fill-opacity="1"></use><g><filter id="shadow11816992" x="179.25" y="406.3" width="64.85" height="61.48" filterUnits="userSpaceOnUse" primitiveUnits="userSpaceOnUse"><feFlood></feFlood><feComposite in2="SourceAlpha" operator="out"></feComposite><feGaussianBlur stdDeviation="1"></feGaussianBlur><feOffset dx="-2" dy="1" result="afterOffset"></feOffset><feFlood flood-color="#ccd9a1" flood-opacity="1"></feFlood><feComposite in2="afterOffset" operator="in"></feComposite><feMorphology operator="dilate" radius="1"></feMorphology><feComposite in2="SourceAlpha" operator="in"></feComposite></filter><path d="M221.39 436.54L232.1 456.78L210.67 456.78L189.25 456.78L199.96 436.54L210.67 416.3L221.39 436.54Z" id="agpU5BhwR" fill="white" fill-opacity="1" filter="url(#shadow11816992)"></path></g></g><g><use xlink:href="#a2sSgMI42" opacity="1" fill="#505375" fill-opacity="1"></use></g><g><g><filter id="shadow15292695" x="200.96" y="443.5" width="59.47" height="59.48" filterUnits="userSpaceOnUse" primitiveUnits="userSpaceOnUse"><feFlood></feFlood><feComposite in2="SourceAlpha" operator="in"></feComposite><feGaussianBlur stdDeviation="1"></feGaussianBlur><feOffset dx="1" dy="1" result="afterOffset"></feOffset><feFlood flood-color="#000000" flood-opacity="0.5"></feFlood><feComposite in2="afterOffset" operator="in"></feComposite><feMorphology operator="dilate" radius="1"></feMorphology><feComposite in2="SourceAlpha" operator="out"></feComposite></filter><path d="M240.31 472.74L250.43 492.97L230.2 492.97L209.96 492.97L220.08 472.74L230.2 452.5L240.31 472.74Z" id="b5x8KCMYY4" fill="white" fill-opacity="1" filter="url(#shadow15292695)"></path></g><use xlink:href="#f2Q8nbfNDh" opacity="1" fill="#505375" fill-opacity="1"></use><g><filter id="shadow15186611" x="199.96" y="442.5" width="62.47" height="61.48" filterUnits="userSpaceOnUse" primitiveUnits="userSpaceOnUse"><feFlood></feFlood><feComposite in2="SourceAlpha" operator="out"></feComposite><feGaussianBlur stdDeviation="1"></feGaussianBlur><feOffset dx="-2" dy="1" result="afterOffset"></feOffset><feFlood flood-color="#ccd9a1" flood-opacity="1"></feFlood><feComposite in2="afterOffset" operator="in"></feComposite><feMorphology operator="dilate" radius="1"></feMorphology><feComposite in2="SourceAlpha" operator="in"></feComposite></filter><path d="M240.31 472.74L250.43 492.97L230.2 492.97L209.96 492.97L220.08 472.74L230.2 452.5L240.31 472.74Z" id="aTgtSF6u5" fill="white" fill-opacity="1" filter="url(#shadow15186611)"></path></g></g><g><use xlink:href="#arcs0QeAm" opacity="1" fill="#505375" fill-opacity="1"></use></g><g><g><filter id="shadow250868" x="197.11" y="478.93" width="99.95" height="73.85" filterUnits="userSpaceOnUse" primitiveUnits="userSpaceOnUse"><feFlood></feFlood><feComposite in2="SourceAlpha" operator="in"></feComposite><feGaussianBlur stdDeviation="1"></feGaussianBlur><feOffset dx="1" dy="1" result="afterOffset"></feOffset><feFlood flood-color="#000000" flood-opacity="0.5"></feFlood><feComposite in2="afterOffset" operator="in"></feComposite><feMorphology operator="dilate" radius="1"></feMorphology><feComposite in2="SourceAlpha" operator="out"></feComposite></filter><path d="M226.38 515.4L206.11 488.01L246.59 487.97L287.06 487.93L266.85 515.36L246.64 542.78L226.38 515.4Z" id="d9tPVw3q0w" fill="white" fill-opacity="1" filter="url(#shadow250868)"></path></g><use xlink:href="#d2YlXr9JI" opacity="1" fill="#505375" fill-opacity="1"></use><g><filter id="shadow11047744" x="168.11" y="449.93" width="163.95" height="130.85" filterUnits="userSpaceOnUse" primitiveUnits="userSpaceOnUse"><feFlood></feFlood><feComposite in2="SourceAlpha" operator="out"></feComposite><feGaussianBlur stdDeviation="3.61"></feGaussianBlur><feOffset dx="-7" dy="0" result="afterOffset"></feOffset><feFlood flood-color="#ccd9a1" flood-opacity="1"></feFlood><feComposite in2="afterOffset" operator="in"></feComposite><feMorphology operator="dilate" radius="0"></feMorphology><feComposite in2="SourceAlpha" operator="in"></feComposite></filter><path d="M226.38 515.4L206.11 488.01L246.59 487.97L287.06 487.93L266.85 515.36L246.64 542.78L226.38 515.4Z" id="d8PohI2HS3" fill="white" fill-opacity="1" filter="url(#shadow11047744)"></path></g></g><g><g><filter id="shadow10104576" x="123.16" y="478.68" width="96.38" height="73.87" filterUnits="userSpaceOnUse" primitiveUnits="userSpaceOnUse"><feFlood></feFlood><feComposite in2="SourceAlpha" operator="in"></feComposite><feGaussianBlur stdDeviation="1"></feGaussianBlur><feOffset dx="1" dy="1" result="afterOffset"></feOffset><feFlood flood-color="#000000" flood-opacity="0.19"></feFlood><feComposite in2="afterOffset" operator="in"></feComposite><feMorphology operator="dilate" radius="1"></feMorphology><feComposite in2="SourceAlpha" operator="out"></feComposite></filter><path d="M151.46 515.11L132.16 487.68L170.85 487.74L209.54 487.8L190.15 515.17L170.76 542.55L151.46 515.11Z" id="b5ivnxRb4" fill="white" fill-opacity="1" filter="url(#shadow10104576)"></path></g><use xlink:href="#p1RPPXpEA" opacity="1" fill="#505375" fill-opacity="1"></use><g><use xlink:href="#p1RPPXpEA" opacity="1" fill-opacity="0" stroke="#505375" stroke-width="1" stroke-opacity="1"></use></g></g><g><use xlink:href="#a12uf6Q49i" opacity="1" fill="#505375" fill-opacity="1"></use></g></g></g></svg>