<?xml version="1.0" encoding="UTF-8" standalone="no"?>
<!DOCTYPE svg PUBLIC "-//W3C//DTD SVG 1.1//EN" "http://www.w3.org/Graphics/SVG/1.1/DTD/svg11.dtd">
<svg version="1.1" xmlns="http://www.w3.org/2000/svg" xmlns:xlink="http://www.w3.org/1999/xlink" preserveAspectRatio="xMidYMid meet" viewBox="0 0 640 640" width="1024" height="728"><defs><path d="M147.76 69.76C161.02 69.76 171.77 79.63 171.77 91.81C171.77 92.26 171.75 92.72 171.72 93.17C181.29 95.02 188.33 101.22 188.33 108.59C188.33 108.59 188.33 108.59 188.33 108.59C188.33 117.41 178.23 124.57 165.75 124.57C160.09 124.57 114.78 124.57 109.12 124.57C96.65 124.57 86.54 117.41 86.54 108.59C86.54 108.59 86.54 108.59 86.54 108.59C86.54 100.89 94.22 94.47 104.46 92.95C105.37 84.61 113.04 78.1 122.37 78.1C124.42 78.1 126.38 78.41 128.22 78.99C132.58 73.4 139.71 69.76 147.76 69.76Z" id="b1yKG1SKwv"></path></defs><g><g><g><use xlink:href="#b1yKG1SKwv" opacity="1" fill="#3a3c56" fill-opacity="1"></use><g><use xlink:href="#b1yKG1SKwv" opacity="1" fill-opacity="0" stroke="#3a3c56" stroke-width="1" stroke-opacity="1"></use></g></g></g></g></svg>