<?xml version="1.0" encoding="UTF-8" standalone="no"?>
<!DOCTYPE svg PUBLIC "-//W3C//DTD SVG 1.1//EN" "http://www.w3.org/Graphics/SVG/1.1/DTD/svg11.dtd">
<svg version="1.1" xmlns="http://www.w3.org/2000/svg" xmlns:xlink="http://www.w3.org/1999/xlink" preserveAspectRatio="xMidYMid meet" viewBox="0 0 640 640" width="1024" height="728"><defs><path d="M461.52 71C478.45 71 492.17 85.05 492.17 102.39C492.17 103.04 492.16 103.69 492.11 104.34C504.34 106.97 513.33 115.8 513.33 126.29C513.33 126.29 513.33 126.29 513.33 126.29C513.33 138.86 500.42 149.05 484.5 149.05C477.27 149.05 419.4 149.05 412.17 149.05C396.25 149.05 383.33 138.86 383.33 126.29C383.33 126.29 383.33 126.29 383.33 126.29C383.33 115.33 393.15 106.18 406.21 104.02C407.38 92.14 417.18 82.87 429.09 82.87C431.71 82.87 434.22 83.32 436.56 84.14C442.13 76.18 451.23 71 461.52 71Z" id="e2Nzq6Ro47"></path></defs><g><g><g><use xlink:href="#e2Nzq6Ro47" opacity="1" fill="#56597e" fill-opacity="1"></use><g><use xlink:href="#e2Nzq6Ro47" opacity="1" fill-opacity="0" stroke="#56597e" stroke-width="1" stroke-opacity="1"></use></g><g><filter id="shadow3652821" x="360.33" y="48" width="181" height="126.05" filterUnits="userSpaceOnUse" primitiveUnits="userSpaceOnUse"><feFlood></feFlood><feComposite in2="SourceAlpha" operator="out"></feComposite><feGaussianBlur stdDeviation="2.45"></feGaussianBlur><feOffset dx="-5" dy="2" result="afterOffset"></feOffset><feFlood flood-color="#ccd9a1" flood-opacity="1"></feFlood><feComposite in2="afterOffset" operator="in"></feComposite><feMorphology operator="dilate" radius="1"></feMorphology><feComposite in2="SourceAlpha" operator="in"></feComposite></filter><path d="M461.52 71C478.45 71 492.17 85.05 492.17 102.39C492.17 103.04 492.16 103.69 492.11 104.34C504.34 106.97 513.33 115.8 513.33 126.29C513.33 126.29 513.33 126.29 513.33 126.29C513.33 138.86 500.42 149.05 484.5 149.05C477.27 149.05 419.4 149.05 412.17 149.05C396.25 149.05 383.33 138.86 383.33 126.29C383.33 126.29 383.33 126.29 383.33 126.29C383.33 115.33 393.15 106.18 406.21 104.02C407.38 92.14 417.18 82.87 429.09 82.87C431.71 82.87 434.22 83.32 436.56 84.14C442.13 76.18 451.23 71 461.52 71Z" id="coimrL5QO" fill="white" fill-opacity="1" filter="url(#shadow3652821)"></path></g></g></g></g></svg>