<?xml version="1.0" encoding="UTF-8" standalone="no"?>
<!DOCTYPE svg PUBLIC "-//W3C//DTD SVG 1.1//EN" "http://www.w3.org/Graphics/SVG/1.1/DTD/svg11.dtd">
<svg version="1.1" xmlns="http://www.w3.org/2000/svg" xmlns:xlink="http://www.w3.org/1999/xlink" preserveAspectRatio="xMidYMid meet" viewBox="0 0 640 640" width="1024" height="728"><defs><path d="M339.73 128.57C354.05 128.57 365.67 139.55 365.67 153.09C365.67 153.6 365.65 154.11 365.62 154.61C375.96 156.66 383.57 163.56 383.57 171.75C383.57 171.75 383.57 171.75 383.57 171.75C383.57 181.57 372.65 189.52 359.17 189.52C353.05 189.52 304.09 189.52 297.97 189.52C284.5 189.52 273.57 181.57 273.57 171.75C273.57 171.75 273.57 171.75 273.57 171.75C273.57 163.19 281.87 156.05 292.93 154.36C293.92 145.08 302.21 137.84 312.29 137.84C314.5 137.84 316.63 138.19 318.61 138.83C323.32 132.62 331.02 128.57 339.73 128.57Z" id="dhF2mSI1e"></path></defs><g><g><g><use xlink:href="#dhF2mSI1e" opacity="1" fill="#50536c" fill-opacity="1"></use><g><use xlink:href="#dhF2mSI1e" opacity="1" fill-opacity="0" stroke="#50536c" stroke-width="1" stroke-opacity="1"></use></g><g><filter id="shadow7537792" x="253.57" y="108.57" width="152" height="101.95" filterUnits="userSpaceOnUse" primitiveUnits="userSpaceOnUse"><feFlood></feFlood><feComposite in2="SourceAlpha" operator="out"></feComposite><feGaussianBlur stdDeviation="2.45"></feGaussianBlur><feOffset dx="-2" dy="1" result="afterOffset"></feOffset><feFlood flood-color="#ccd9a1" flood-opacity="1"></feFlood><feComposite in2="afterOffset" operator="in"></feComposite><feMorphology operator="dilate" radius="1"></feMorphology><feComposite in2="SourceAlpha" operator="in"></feComposite></filter><path d="M339.73 128.57C354.05 128.57 365.67 139.55 365.67 153.09C365.67 153.6 365.65 154.11 365.62 154.61C375.96 156.66 383.57 163.56 383.57 171.75C383.57 171.75 383.57 171.75 383.57 171.75C383.57 181.57 372.65 189.52 359.17 189.52C353.05 189.52 304.09 189.52 297.97 189.52C284.5 189.52 273.57 181.57 273.57 171.75C273.57 171.75 273.57 171.75 273.57 171.75C273.57 163.19 281.87 156.05 292.93 154.36C293.92 145.08 302.21 137.84 312.29 137.84C314.5 137.84 316.63 138.19 318.61 138.83C323.32 132.62 331.02 128.57 339.73 128.57Z" id="a2kTUykHNS" fill="white" fill-opacity="1" filter="url(#shadow7537792)"></path></g></g></g></g></svg>