<?xml version="1.0" encoding="UTF-8" standalone="no"?>
<!DOCTYPE svg PUBLIC "-//W3C//DTD SVG 1.1//EN" "http://www.w3.org/Graphics/SVG/1.1/DTD/svg11.dtd">
<svg version="1.1" xmlns="http://www.w3.org/2000/svg" xmlns:xlink="http://www.w3.org/1999/xlink" preserveAspectRatio="xMidYMid meet" viewBox="0 0 640 640" width="1024" height="728"><defs><path d="M563.61 100.53C548.88 122.79 519.33 129.21 497.66 114.87C475.98 100.53 470.35 70.82 485.07 48.56C499.8 26.31 529.36 19.88 551.03 34.22C572.7 48.56 578.34 78.28 563.61 100.53Z" id="g65Hra0m7"></path></defs><g><g><g><g><filter id="shadow2385820" x="359.87" y="-90.42" width="329.95" height="330.94" filterUnits="userSpaceOnUse" primitiveUnits="userSpaceOnUse"><feFlood></feFlood><feComposite in2="SourceAlpha" operator="in"></feComposite><feGaussianBlur stdDeviation="7.07"></feGaussianBlur><feOffset dx="1" dy="1" result="afterOffset"></feOffset><feFlood flood-color="#ccd9a1" flood-opacity="0.5"></feFlood><feComposite in2="afterOffset" operator="in"></feComposite><feMorphology operator="dilate" radius="11"></feMorphology><feComposite in2="SourceAlpha" operator="out"></feComposite></filter><path d="M563.61 100.53C548.88 122.79 519.33 129.21 497.66 114.87C475.98 100.53 470.35 70.82 485.07 48.56C499.8 26.31 529.36 19.88 551.03 34.22C572.7 48.56 578.34 78.28 563.61 100.53Z" id="d1RpcnQn8b" fill="white" fill-opacity="1" filter="url(#shadow2385820)"></path></g><use xlink:href="#g65Hra0m7" opacity="1" fill="#ccd9a1" fill-opacity="1"></use><g><use xlink:href="#g65Hra0m7" opacity="1" fill-opacity="0" stroke="#ccd9a1" stroke-width="1" stroke-opacity="1"></use></g><g><filter id="shadow4106851" x="467.87" y="17.58" width="113.95" height="114.94" filterUnits="userSpaceOnUse" primitiveUnits="userSpaceOnUse"><feFlood></feFlood><feComposite in2="SourceAlpha" operator="out"></feComposite><feGaussianBlur stdDeviation="1"></feGaussianBlur><feOffset dx="1" dy="1" result="afterOffset"></feOffset><feFlood flood-color="#ffffff" flood-opacity="0.8"></feFlood><feComposite in2="afterOffset" operator="in"></feComposite><feMorphology operator="dilate" radius="1"></feMorphology><feComposite in2="SourceAlpha" operator="in"></feComposite></filter><path d="M563.61 100.53C548.88 122.79 519.33 129.21 497.66 114.87C475.98 100.53 470.35 70.82 485.07 48.56C499.8 26.31 529.36 19.88 551.03 34.22C572.7 48.56 578.34 78.28 563.61 100.53Z" id="c1QVSHmjnp" fill="white" fill-opacity="1" filter="url(#shadow4106851)"></path></g></g></g></g></svg>