<?xml version="1.0" encoding="UTF-8" standalone="no"?>
<!DOCTYPE svg PUBLIC "-//W3C//DTD SVG 1.1//EN" "http://www.w3.org/Graphics/SVG/1.1/DTD/svg11.dtd">
<svg version="1.1" xmlns="http://www.w3.org/2000/svg" xmlns:xlink="http://www.w3.org/1999/xlink" preserveAspectRatio="xMidYMid meet" viewBox="0 0 640 640" width="1000" height="600"><defs><path d="M-136.01 585.68L896.01 585.68L896.01 483.28C845.33 560.08 802.33 560.08 767.01 483.28C731.68 406.48 688.68 406.48 638 483.28C596.85 558.33 553.85 558.33 509 483.28C464.16 408.22 421.16 408.22 380 483.28C336.79 568.78 293.79 568.78 251 483.28C186.8 355.01 121.69 482.67 122 483.28C122.3 483.89 60.26 596.73 -7.01 483.28C-51.85 407.64 -94.85 407.64 -136.01 483.28L-136.01 585.68Z" id="af1zkL47N"></path></defs><g><g><g><g><filter id="shadow782209" x="-155.01" y="406.68" width="1071.01" height="199" filterUnits="userSpaceOnUse" primitiveUnits="userSpaceOnUse"><feFlood></feFlood><feComposite in2="SourceAlpha" operator="in"></feComposite><feGaussianBlur stdDeviation="2.45"></feGaussianBlur><feOffset dx="1" dy="1" result="afterOffset"></feOffset><feFlood flood-color="#ccd9a1" flood-opacity="0.5"></feFlood><feComposite in2="afterOffset" operator="in"></feComposite><feMorphology operator="dilate" radius="1"></feMorphology><feComposite in2="SourceAlpha" operator="out"></feComposite></filter><path d="M-136.01 585.68L896.01 585.68L896.01 483.28C845.33 560.08 802.33 560.08 767.01 483.28C731.68 406.48 688.68 406.48 638 483.28C596.85 558.33 553.85 558.33 509 483.28C464.16 408.22 421.16 408.22 380 483.28C336.79 568.78 293.79 568.78 251 483.28C186.8 355.01 121.69 482.67 122 483.28C122.3 483.89 60.26 596.73 -7.01 483.28C-51.85 407.64 -94.85 407.64 -136.01 483.28L-136.01 585.68Z" id="mu0Vt8jHs" fill="white" fill-opacity="1" filter="url(#shadow782209)"></path></g><use xlink:href="#af1zkL47N" opacity="1" fill="#263259" fill-opacity="1"></use><g><use xlink:href="#af1zkL47N" opacity="1" fill-opacity="0" stroke="#000000" stroke-width="0" stroke-opacity="1"></use></g></g></g></g></svg>