<?xml version="1.0" encoding="UTF-8" standalone="no"?>
<!DOCTYPE svg PUBLIC "-//W3C//DTD SVG 1.1//EN" "http://www.w3.org/Graphics/SVG/1.1/DTD/svg11.dtd">
<svg version="1.1" xmlns="http://www.w3.org/2000/svg" xmlns:xlink="http://www.w3.org/1999/xlink" preserveAspectRatio="xMidYMid meet" viewBox="0 0 640 640" width="1000" height="720"><defs><path d="M-156.55 640L756.55 640L756.55 558.87C711.71 619.72 673.67 619.72 642.41 558.87C611.15 498.03 573.11 498.03 528.27 558.87C491.86 618.34 453.81 618.34 414.14 558.87C374.46 499.41 336.42 499.41 300 558.87C261.77 626.62 223.73 626.62 185.86 558.87C129.07 457.26 71.45 558.39 71.73 558.87C72 559.36 17.1 648.76 -42.41 558.87C-82.09 498.95 -120.13 498.95 -156.55 558.87L-156.55 640Z" id="beSkFPifc"></path></defs><g><g><g><g><filter id="shadow16608483" x="-175.55" y="494.24" width="952.1" height="165.76" filterUnits="userSpaceOnUse" primitiveUnits="userSpaceOnUse"><feFlood></feFlood><feComposite in2="SourceAlpha" operator="in"></feComposite><feGaussianBlur stdDeviation="2.45"></feGaussianBlur><feOffset dx="1" dy="1" result="afterOffset"></feOffset><feFlood flood-color="#ccd9a1" flood-opacity="0.5"></feFlood><feComposite in2="afterOffset" operator="in"></feComposite><feMorphology operator="dilate" radius="1"></feMorphology><feComposite in2="SourceAlpha" operator="out"></feComposite></filter><path d="M-156.55 640L756.55 640L756.55 558.87C711.71 619.72 673.67 619.72 642.41 558.87C611.15 498.03 573.11 498.03 528.27 558.87C491.86 618.34 453.81 618.34 414.14 558.87C374.46 499.41 336.42 499.41 300 558.87C261.77 626.62 223.73 626.62 185.86 558.87C129.07 457.26 71.45 558.39 71.73 558.87C72 559.36 17.1 648.76 -42.41 558.87C-82.09 498.95 -120.13 498.95 -156.55 558.87L-156.55 640Z" id="djLmTnbXF" fill="white" fill-opacity="1" filter="url(#shadow16608483)"></path></g><use xlink:href="#beSkFPifc" opacity="1" fill="#263259" fill-opacity="1"></use><g><use xlink:href="#beSkFPifc" opacity="1" fill-opacity="0" stroke="#000000" stroke-width="0" stroke-opacity="1"></use></g></g></g></g></svg>