<?xml version="1.0" encoding="UTF-8" standalone="no"?>
<!DOCTYPE svg PUBLIC "-//W3C//DTD SVG 1.1//EN" "http://www.w3.org/Graphics/SVG/1.1/DTD/svg11.dtd">
<svg version="1.1" xmlns="http://www.w3.org/2000/svg" xmlns:xlink="http://www.w3.org/1999/xlink" preserveAspectRatio="xMidYMid meet" viewBox="0 0 640 640" width="1000" height="800"><defs><path d="M-52.68 575.93L807.37 575.93L807.37 504.34C765.14 558.03 729.3 558.03 699.86 504.34C670.42 450.65 634.58 450.65 592.35 504.34C558.05 556.82 522.22 556.82 484.85 504.34C447.48 451.86 411.64 451.86 377.34 504.34C341.33 564.12 305.5 564.12 269.83 504.34C216.34 414.67 162.07 503.91 162.33 504.34C162.58 504.77 110.88 583.66 54.82 504.34C17.45 451.46 -18.39 451.46 -52.68 504.34L-52.68 575.93Z" id="jvzEdHtc6"></path></defs><g><g><g><g><filter id="shadow2672640" x="-71.68" y="445.07" width="899.05" height="150.86" filterUnits="userSpaceOnUse" primitiveUnits="userSpaceOnUse"><feFlood></feFlood><feComposite in2="SourceAlpha" operator="in"></feComposite><feGaussianBlur stdDeviation="2.45"></feGaussianBlur><feOffset dx="1" dy="1" result="afterOffset"></feOffset><feFlood flood-color="#ccd9a1" flood-opacity="0.5"></feFlood><feComposite in2="afterOffset" operator="in"></feComposite><feMorphology operator="dilate" radius="1"></feMorphology><feComposite in2="SourceAlpha" operator="out"></feComposite></filter><path d="M-52.68 575.93L807.37 575.93L807.37 504.34C765.14 558.03 729.3 558.03 699.86 504.34C670.42 450.65 634.58 450.65 592.35 504.34C558.05 556.82 522.22 556.82 484.85 504.34C447.48 451.86 411.64 451.86 377.34 504.34C341.33 564.12 305.5 564.12 269.83 504.34C216.34 414.67 162.07 503.91 162.33 504.34C162.58 504.77 110.88 583.66 54.82 504.34C17.45 451.46 -18.39 451.46 -52.68 504.34L-52.68 575.93Z" id="aPXryAXM5" fill="white" fill-opacity="1" filter="url(#shadow2672640)"></path></g><use xlink:href="#jvzEdHtc6" opacity="1" fill="#263259" fill-opacity="1"></use><g><use xlink:href="#jvzEdHtc6" opacity="1" fill-opacity="0" stroke="#000000" stroke-width="0" stroke-opacity="1"></use></g></g></g></g></svg>