<?xml version="1.0" encoding="UTF-8" standalone="no"?>
<!DOCTYPE svg PUBLIC "-//W3C//DTD SVG 1.1//EN" "http://www.w3.org/Graphics/SVG/1.1/DTD/svg11.dtd">
<svg version="1.1" xmlns="http://www.w3.org/2000/svg" xmlns:xlink="http://www.w3.org/1999/xlink" preserveAspectRatio="xMidYMid meet" viewBox="0 0 640 640" width="900" height="600"><defs><path d="M-66.4 640L850.15 640L850.15 537.6C805.15 614.4 766.96 614.4 735.58 537.6C704.21 460.8 666.02 460.8 621.01 537.6C584.46 612.66 546.27 612.66 506.45 537.6C466.62 462.54 428.43 462.54 391.88 537.6C353.51 623.11 315.32 623.11 277.31 537.6C220.3 409.34 162.47 536.99 162.74 537.6C163.01 538.21 107.91 651.06 48.17 537.6C8.35 461.96 -29.84 461.96 -66.4 537.6L-66.4 640Z" id="bOPvbY4jB"></path></defs><g><g><g><g><filter id="shadow9385795" x="-85.4" y="461" width="955.55" height="199" filterUnits="userSpaceOnUse" primitiveUnits="userSpaceOnUse"><feFlood></feFlood><feComposite in2="SourceAlpha" operator="in"></feComposite><feGaussianBlur stdDeviation="2.45"></feGaussianBlur><feOffset dx="1" dy="1" result="afterOffset"></feOffset><feFlood flood-color="#ccd9a1" flood-opacity="0.5"></feFlood><feComposite in2="afterOffset" operator="in"></feComposite><feMorphology operator="dilate" radius="1"></feMorphology><feComposite in2="SourceAlpha" operator="out"></feComposite></filter><path d="M-66.4 640L850.15 640L850.15 537.6C805.15 614.4 766.96 614.4 735.58 537.6C704.21 460.8 666.02 460.8 621.01 537.6C584.46 612.66 546.27 612.66 506.45 537.6C466.62 462.54 428.43 462.54 391.88 537.6C353.51 623.11 315.32 623.11 277.31 537.6C220.3 409.34 162.47 536.99 162.74 537.6C163.01 538.21 107.91 651.06 48.17 537.6C8.35 461.96 -29.84 461.96 -66.4 537.6L-66.4 640Z" id="c4Spi1LGKb" fill="white" fill-opacity="1" filter="url(#shadow9385795)"></path></g><use xlink:href="#bOPvbY4jB" opacity="1" fill="#263259" fill-opacity="1"></use><g><use xlink:href="#bOPvbY4jB" opacity="1" fill-opacity="0" stroke="#000000" stroke-width="0" stroke-opacity="1"></use></g></g></g></g></svg>